<svg width="199" height="61" viewBox="0 0 199 61" fill="none" xmlns="http://www.w3.org/2000/svg">
<path d="M152.429 1.74283C152.429 1.16187 152.705 0.871399 153.255 0.871399H179.526C180.077 0.871399 180.352 1.16187 180.352 1.74283V12.3743C180.352 12.9552 180.077 13.2457 179.526 13.2457H166.06C165.73 13.2457 165.565 13.42 165.565 13.7685V23.5285C165.565 23.8771 165.73 24.0514 166.06 24.0514H177.626C178.177 24.0514 178.452 24.3419 178.452 24.9228V35.5543C178.452 36.1352 178.177 36.4257 177.626 36.4257H166.06C165.73 36.4257 165.565 36.6 165.565 36.9485V47.2314C165.565 47.58 165.73 47.7542 166.06 47.7542H179.526C180.077 47.7542 180.352 48.0447 180.352 48.6257V59.2571C180.352 59.8381 180.077 60.1285 179.526 60.1285H153.255C152.705 60.1285 152.429 59.8381 152.429 59.2571V1.74283Z" fill="#E7CEA0"/>
<path d="M116.382 50.2814C116.162 49.5843 115.969 48.8291 115.804 48.0157C115.694 47.2024 115.584 46.0986 115.474 44.7043C115.363 43.2519 115.281 41.4219 115.226 39.2143C115.171 36.9486 115.143 34.0438 115.143 30.5C115.143 26.9562 115.171 24.0805 115.226 21.8729C115.281 19.6071 115.363 17.7771 115.474 16.3829C115.584 14.9305 115.694 13.7976 115.804 12.9843C115.969 12.171 116.162 11.4157 116.382 10.7186C118.585 3.57286 123.68 0 131.666 0C136.843 0 140.753 1.42333 143.397 4.27C146.095 7.05857 147.582 10.9219 147.858 15.86C147.858 16.4991 147.637 16.8476 147.197 16.9057L136.127 18.8229C135.521 18.939 135.218 18.6776 135.218 18.0386C135.163 16.0052 134.86 14.5529 134.309 13.6814C133.759 12.81 132.932 12.3743 131.831 12.3743C130.399 12.3743 129.463 13.0714 129.022 14.4657C128.912 14.7562 128.829 15.1048 128.774 15.5114C128.774 15.9181 128.747 16.6443 128.692 17.69C128.637 18.7357 128.609 20.2752 128.609 22.3086C128.609 24.2838 128.609 27.0143 128.609 30.5C128.609 33.9857 128.609 36.7452 128.609 38.7786C128.609 40.7538 128.637 42.2643 128.692 43.31C128.747 44.3557 128.774 45.0819 128.774 45.4886C128.829 45.8952 128.912 46.2438 129.022 46.5343C129.463 47.9286 130.399 48.6257 131.831 48.6257C132.932 48.6257 133.759 48.19 134.309 47.3186C134.86 46.4471 135.163 44.9948 135.218 42.9614C135.218 42.3224 135.521 42.061 136.127 42.1771L147.197 44.0943C147.637 44.1524 147.858 44.501 147.858 45.14C147.582 50.0781 146.095 53.9705 143.397 56.8171C140.753 59.6057 136.843 61 131.666 61C123.68 61 118.585 57.4271 116.382 50.2814Z" fill="#E7CEA0"/>
<path d="M93.1944 61C88.1275 61 84.107 59.4895 81.133 56.4685C78.1589 53.4476 76.6719 48.9452 76.6719 42.9614V1.74283C76.6719 1.16187 76.9473 0.871399 77.498 0.871399H88.9812C89.5319 0.871399 89.8073 1.16187 89.8073 1.74283V44.53C89.8073 47.2604 90.9364 48.6257 93.1944 48.6257C95.4525 48.6257 96.5816 47.2604 96.5816 44.53V1.74283C96.5816 1.16187 96.8569 0.871399 97.4077 0.871399H108.891C109.442 0.871399 109.717 1.16187 109.717 1.74283V42.9614C109.717 48.9452 108.23 53.4476 105.256 56.4685C102.282 59.4895 98.2614 61 93.1944 61Z" fill="#E7CEA0"/>
<path d="M47.538 1.74283C47.7033 1.16187 48.0337 0.871399 48.5294 0.871399H61.3344C61.8851 0.871399 62.2156 1.16187 62.3257 1.74283L74.3872 59.2571C74.5524 59.8381 74.3321 60.1285 73.7263 60.1285H62.3257C61.775 60.1285 61.4445 59.8381 61.3344 59.2571L59.8473 49.9328H49.8512L48.2815 59.2571C48.1714 59.8381 47.8685 60.1285 47.3728 60.1285H35.8896C35.3389 60.1285 35.1186 59.8381 35.2287 59.2571L47.538 1.74283ZM58.1125 39.5628L55.0558 20.3043H54.8906L51.5861 39.5628H58.1125Z" fill="#E7CEA0"/>
<path d="M33.3756 41.8286C33.3756 48.219 31.9987 53.0119 29.245 56.2071C26.5463 59.4024 22.2779 61 16.44 61C13.576 61 11.0977 60.6224 9.0048 59.8671C6.96702 59.0538 5.28722 57.95 3.96542 56.5557C2.64361 55.1033 1.65226 53.3895 0.991354 51.4143C0.330451 49.381 0 47.1443 0 44.7043C0 44.0652 0.220301 43.7167 0.660903 43.6586L11.5658 41.8286C12.1716 41.7124 12.4745 41.9738 12.4745 42.6129C12.5296 46.9119 13.8514 49.0614 16.44 49.0614C17.6516 49.0614 18.5604 48.6548 19.1662 47.8414C19.772 47.0281 20.0749 45.6048 20.0749 43.5714C20.0749 41.5962 19.7445 40.1438 19.0836 39.2143C18.4227 38.2267 17.0733 37.3262 15.0355 36.5129L11.6484 35.1186C9.6657 34.3052 7.95837 33.3757 6.52641 32.33C5.14953 31.2843 3.99295 30.0643 3.05668 28.67C2.17547 27.2757 1.51457 25.649 1.07397 23.79C0.68844 21.931 0.495677 19.7814 0.495677 17.3414C0.495677 11.7062 1.78994 7.40715 4.37848 4.44429C7.02209 1.48143 11.0701 0 16.5226 0C21.8098 0 25.7752 1.36524 28.4188 4.09572C31.1175 6.7681 32.5495 10.4571 32.7147 15.1629C32.7147 15.7438 32.4669 16.0633 31.9712 16.1214L21.562 17.7771C20.9561 17.8933 20.6532 17.661 20.6532 17.08C20.5981 13.6524 19.3865 11.9386 17.0182 11.9386C14.7602 11.9386 13.6311 13.42 13.6311 16.3829C13.6311 17.2543 13.6862 17.9805 13.7963 18.5614C13.9616 19.1424 14.2369 19.6652 14.6225 20.13C15.008 20.5948 15.5312 21.0305 16.1921 21.4371C16.853 21.8438 17.7342 22.2795 18.8357 22.7443L22.2229 24.1386C24.2056 24.9519 25.9129 25.8814 27.3449 26.9271C28.7768 27.9148 29.9334 29.1057 30.8146 30.5C31.6958 31.8943 32.3292 33.521 32.7147 35.38C33.1553 37.2391 33.3756 39.3886 33.3756 41.8286Z" fill="#E7CEA0"/>
<ellipse cx="191.79" cy="54.2074" rx="6.39301" ry="6.79258" fill="#E7CEA0"/>
</svg>
