<svg width="28" height="36" viewBox="0 0 28 36" fill="none" xmlns="http://www.w3.org/2000/svg">
<path d="M11.5863 0.0712318C9.43821 0.423061 7.67041 1.11265 5.95191 2.25961C3.02202 4.21578 0.986583 7.25558 0.240022 10.7739C0.0146459 11.8153 -0.0698704 13.9122 0.063947 15.0099C0.451313 18.1412 2.09938 21.955 4.82503 26.0151C6.05756 27.8446 8.00143 30.3496 9.56498 32.1299C10.4454 33.122 12.2836 35.0923 12.7696 35.5637C13.1851 35.9578 13.2555 36 13.5372 36C13.833 36 13.8542 35.9859 14.7698 35.0571C18.1927 31.5599 21.4325 27.4576 23.4679 24.0449C25.4118 20.7869 26.5598 17.8808 26.9472 15.2421C27.1162 14.0459 27.0528 11.9279 26.8063 10.7739C25.6724 5.41903 21.6015 1.35189 16.2347 0.211964C15.4952 0.0501251 15.1853 0.0219765 13.7697 0.00790405C12.6569 -0.0132065 11.9737 0.00790405 11.5863 0.0712318ZM15.0726 7.53704C15.7699 7.71296 16.8756 8.27588 17.432 8.74733C20.1929 11.0694 20.4183 15.1506 17.9321 17.7612C16.115 19.6681 13.0583 20.1677 10.72 18.9363C9.10718 18.0849 7.95213 16.6142 7.53659 14.8903C7.34643 14.074 7.34643 12.8919 7.53659 12.0756C7.83944 10.8231 8.62826 9.56358 9.63541 8.72622C10.1707 8.28292 11.2976 7.70592 11.9737 7.53001C12.8963 7.29076 14.1289 7.29076 15.0726 7.53704Z" fill="white"/>
</svg>
