<svg width="34" height="34" viewBox="0 0 34 34" fill="none" xmlns="http://www.w3.org/2000/svg">
<path d="M14.9389 0.0905457C9.08047 0.814739 3.95932 4.58189 1.51498 9.95025C0.857402 11.3986 0.458869 12.7075 0.186537 14.3021C0.00719753 15.3385 -0.0592247 17.6972 0.0603353 18.8333C0.61164 24.2681 3.80655 29.1116 8.66201 31.8622C10.6015 32.9651 12.9197 33.6959 15.2511 33.9484C16.3471 34.0613 18.798 33.9949 19.8276 33.8155C23.9856 33.1046 27.5458 31.0516 30.1961 27.8492C32.2087 25.4042 33.5371 22.3015 33.9024 19.1389C34.0154 18.1622 34.0353 16.2155 33.9357 15.2854C33.6035 12.2026 32.4279 9.28585 30.495 6.74119C29.9238 5.98378 28.23 4.24969 27.5259 3.69824C24.9554 1.6851 22.0926 0.469254 18.9907 0.0839005C18.0608 -0.0290489 15.902 -0.0290489 14.9389 0.0905457ZM18.9575 2.42259C25.2277 3.28631 30.2891 8.24274 31.4183 14.6409C31.5976 15.6442 31.6574 17.551 31.5511 18.5343C31.312 20.6737 30.588 22.8263 29.5252 24.5737C27.1473 28.4671 23.1487 31.0715 18.6918 31.6164C17.9279 31.7094 16.1345 31.7094 15.3773 31.6164C11.5248 31.138 8.13728 29.271 5.6398 26.2546C4.46413 24.8262 3.42794 22.833 2.90985 20.9992C2.51131 19.5708 2.42497 18.8599 2.41832 17.0992C2.41832 15.7239 2.43825 15.3917 2.57109 14.6542C2.95634 12.5215 3.72684 10.5947 4.89587 8.86063C8.06421 4.15667 13.4843 1.67846 18.9575 2.42259Z" fill="white"/>
<path d="M10.057 8.05669C10.0238 8.07662 9.88431 8.1032 9.75147 8.12313C9.36622 8.18957 8.94111 8.51512 8.72192 8.90712L8.5293 9.25925V17.1723V25.0786L8.71528 25.3577C8.97433 25.7563 9.34629 25.9291 9.92416 25.9291C10.2496 25.9291 10.4622 25.8958 10.6216 25.8095C10.8873 25.6699 11.1928 25.3975 11.3057 25.2049C11.3655 25.1052 11.3921 23.5439 11.4187 19.4047L11.4519 13.7307L13.5774 18.0758C15.7162 22.441 15.9154 22.7931 16.3605 23.0256C16.6328 23.1718 17.3635 23.1718 17.6358 23.0256C18.0808 22.7931 18.2801 22.441 20.4189 18.0758L22.5444 13.7373L22.5776 19.3714C22.6108 25.5171 22.5909 25.1849 22.9894 25.5437C23.3016 25.8294 23.5872 25.9291 24.0721 25.9291C24.8027 25.9291 25.281 25.6168 25.4337 25.0321C25.4802 24.866 25.4935 22.1619 25.4869 17.0195C25.467 8.39553 25.5002 9.04 25.0219 8.55499C24.6566 8.19621 24.2979 8.06997 23.5739 8.06997C23.0492 8.06333 22.8964 8.08991 22.6706 8.2095C22.292 8.40882 22.0329 8.68122 21.7606 9.17288C21.5813 9.50508 18.5059 15.8568 17.2638 18.4811L17.0181 18.9927L15.4704 15.7903C11.8637 8.33574 11.9833 8.55499 11.339 8.22279C11.0866 8.09655 10.2363 7.9836 10.057 8.05669Z" fill="white"/>
</svg>
