<svg width="34" height="34" viewBox="0 0 34 34" fill="none" xmlns="http://www.w3.org/2000/svg">
<path d="M1.28164 0.107292C0.889841 0.240131 0.345311 0.751575 0.159374 1.15674C0.0265624 1.43571 0 1.59512 0 2.19291C0 3.56118 0.312108 6.01212 0.730466 7.88519C1.91249 13.1789 4.30311 17.9878 7.86247 22.2454C8.51325 23.0225 10.4457 24.9886 11.289 25.7259C15.3265 29.2728 20.1277 31.7901 25.3007 33.0654C27.5054 33.6101 29.5308 33.9156 31.3769 33.982C32.3796 34.0152 32.4593 34.0152 32.7913 33.8691C33.2296 33.6831 33.7475 33.1318 33.8936 32.7001C33.9866 32.4211 33.9999 31.8366 33.9999 27.7916C33.9999 22.6506 34.0198 22.8432 33.5218 22.2786C33.1897 21.9 32.8112 21.6808 32.3397 21.5879C32.1405 21.548 30.2745 21.2757 28.1894 20.9768C25.6062 20.6115 24.298 20.4521 24.0589 20.472C23.3616 20.545 23.2023 20.6646 21.2499 22.6107C20.1011 23.7532 19.3574 24.444 19.2445 24.4705C18.9855 24.5369 18.8394 24.4705 18.0624 23.9524C14.7621 21.7605 12.2918 19.2897 10.0871 16.0018C9.23708 14.7398 9.13083 15.0055 11.3687 12.7671C13.341 10.7878 13.4539 10.635 13.5269 9.9376C13.5601 9.59886 12.5043 1.94715 12.3515 1.37593C12.2121 0.871132 11.5414 0.206921 11.0367 0.0607948C10.8773 0.0209427 9.16403 -0.00562668 6.17576 0.00101852C2.25781 0.00101852 1.5207 0.0209427 1.28164 0.107292Z" fill="white"/>
</svg>
