<svg width="34" height="34" viewBox="0 0 34 34" fill="none" xmlns="http://www.w3.org/2000/svg">
<path d="M14.8388 0.0896492C11.7711 0.488098 8.94252 1.67015 6.50567 3.56942C5.71551 4.18037 4.4008 5.47532 3.76337 6.26558C1.92411 8.54336 0.715638 11.2196 0.197723 14.1415C0.0118043 15.1775 -0.061235 17.6678 0.0582839 18.8034C0.46332 22.5953 2.08347 26.0485 4.74608 28.8044C7.16302 31.3013 10.1975 32.9881 13.4909 33.6654C15.7086 34.117 18.358 34.1104 20.5491 33.6521C27.0496 32.2908 32.2421 27.111 33.6564 20.5698C34.1145 18.4315 34.1145 15.5494 33.6564 13.4111C32.1292 6.33862 26.2728 0.979515 19.1216 0.0896492C18.1123 -0.0298843 15.7949 -0.0298843 14.8388 0.0896492ZM17.5147 6.23901C17.6873 6.32534 17.8732 6.49136 17.9795 6.65074L18.1588 6.92301L18.1787 11.6845L18.1986 16.4525L21.0803 18.7569C24.1745 21.2339 24.2343 21.2937 24.2343 21.878C24.2343 22.3894 23.7828 22.9074 23.2582 23.007C22.7802 23.1 22.6142 22.9871 19.3606 20.3839C17.6342 19.0026 16.1601 17.794 16.0805 17.6877C16.0008 17.5881 15.9012 17.3955 15.8613 17.2627C15.8149 17.1033 15.8016 15.3701 15.8149 11.97L15.8348 6.92301L16.0141 6.65074C16.2133 6.34526 16.6515 6.09956 16.9901 6.09956C17.1163 6.09956 17.3487 6.16596 17.5147 6.23901Z" fill="white"/>
</svg>
